<svg width="22" height="23" viewBox="0 0 22 23" fill="none" xmlns="http://www.w3.org/2000/svg">
<path d="M22 11.0817C22 17.1564 17.0747 22.0817 10.9974 22.0826C4.92439 22.0826 -0.000879669 17.1564 4.71694e-07 11.0808C-0.00175981 5.00522 4.92351 0.0799561 10.9991 0.0799561C17.0747 0.0799561 22 5.0061 22 11.0817V11.0817Z" fill="#EAB300"/>
<path fill-rule="evenodd" clip-rule="evenodd" d="M15.3275 8.38676C15.1858 6.9134 13.914 6.41964 12.3069 6.27882V4.23425H11.0633V6.22425C10.7367 6.22425 10.4023 6.23041 10.0705 6.23745V4.23425H8.82682L8.82594 6.27706L8.8126 6.27732C8.54787 6.28251 8.28743 6.28762 8.03381 6.28762V6.28146L6.31842 6.28058V7.60959C6.31842 7.60959 7.23728 7.59199 7.22144 7.60871C7.72576 7.60871 7.88947 7.90092 7.93699 8.15352V10.4824C7.9722 10.4824 8.01709 10.4841 8.06814 10.4912H7.93699L7.93611 13.7539C7.91411 13.9123 7.82082 14.1649 7.46876 14.1658C7.4846 14.1798 6.56485 14.1658 6.56485 14.1658L6.31754 15.6514H7.93699C8.11961 15.6514 8.3006 15.6534 8.47958 15.6553C8.59562 15.6566 8.71082 15.6578 8.82506 15.6585L8.82594 17.7259H10.0687V15.6805C10.4093 15.6875 10.7394 15.6902 11.0624 15.6902L11.0615 17.7259H12.3051V15.6629C14.3963 15.5432 15.8618 15.016 16.0431 13.0515C16.1901 11.4699 15.4464 10.7631 14.259 10.478C14.9816 10.1118 15.4332 9.46493 15.3275 8.38676ZM13.5866 12.8068C13.5866 14.2256 11.3553 14.1934 10.3375 14.1788H10.3374C10.2472 14.1775 10.1665 14.1763 10.0977 14.1763V11.4364C10.1837 11.4366 10.2883 11.4343 10.4069 11.4316L10.407 11.4316C11.4531 11.4081 13.5866 11.3602 13.5866 12.8068ZM10.3057 10.1863C11.1573 10.1997 13.0074 10.2289 13.0074 8.94212C13.0082 7.6251 11.2254 7.67228 10.3538 7.69535C10.2556 7.69795 10.1689 7.70024 10.0977 7.70024V10.184C10.157 10.1839 10.2271 10.185 10.3057 10.1863Z" fill="white"/>
<path d="M7.93881 10.4278H8.12364V10.5642H7.93881V10.4278Z" fill="white"/>
</svg>
